<?xml version="1.0" standalone="no"?>
<!DOCTYPE svg PUBLIC "-//W3C//DTD SVG 20010904//EN"
 "http://www.w3.org/TR/2001/REC-SVG-20010904/DTD/svg10.dtd">
<svg version="1.0" xmlns="http://www.w3.org/2000/svg"
 width="512.000000pt" height="512.000000pt" viewBox="0 0 512.000000 512.000000"
 preserveAspectRatio="xMidYMid meet">
<metadata>
Created by potrace 1.11, written by Peter Selinger 2001-2013
</metadata>
<g transform="translate(0.000000,512.000000) scale(0.100000,-0.100000)"
fill="#000000" stroke="none">
<path d="M2415 5098 c-319 -17 -551 -71 -856 -198 -597 -249 -1071 -721 -1347
-1341 -62 -138 -124 -340 -161 -524 -52 -260 -54 -664 -6 -915 79 -410 212
-723 443 -1045 344 -480 870 -839 1432 -978 259 -64 368 -77 642 -77 202 0
254 3 383 25 559 92 1023 325 1405 705 127 126 160 162 242 271 345 459 517
971 518 1540 0 498 -137 961 -407 1379 -175 269 -352 454 -668 698 -5 4 -35
23 -65 42 -30 19 -57 37 -60 40 -7 7 -35 23 -153 86 -154 83 -338 156 -522
208 -104 29 -128 34 -220 50 -125 21 -154 24 -290 31 -66 3 -131 7 -145 9 -14
1 -88 -1 -165 -6z m40 -647 c163 -35 310 -101 447 -203 73 -55 195 -171 224
-213 20 -32 24 -75 9 -111 -16 -39 -41 -54 -90 -54 -32 0 -44 8 -98 67 -233
251 -566 374 -862 319 -231 -44 -408 -143 -572 -321 -55 -59 -63 -65 -101 -65
-55 0 -92 42 -92 106 0 43 4 49 87 135 174 181 365 290 593 339 119 26 334 26
455 1z m-10 -486 c147 -41 275 -118 389 -232 68 -69 76 -81 76 -115 0 -46 -28
-78 -69 -78 -23 0 -43 14 -92 66 -170 176 -426 265 -635 221 -159 -34 -273
-96 -393 -213 -82 -81 -113 -92 -151 -54 -33 33 -26 81 18 132 121 141 288
242 467 282 90 20 303 15 390 -9z m-105 -447 c182 -55 304 -211 317 -404 10
-143 -49 -283 -154 -372 -54 -45 -138 -88 -190 -98 l-33 -6 0 -812 c0 -890 1
-898 60 -1000 50 -89 136 -158 238 -191 43 -14 81 -16 205 -13 138 3 157 6
209 30 109 51 203 161 232 275 13 49 16 122 16 375 l0 315 -62 17 c-320 89
-548 397 -548 738 1 200 77 377 227 525 46 46 83 91 83 100 0 68 57 154 117
179 48 20 127 17 173 -6 61 -31 110 -111 110 -180 0 -46 -46 -123 -92 -153
-39 -26 -49 -28 -113 -24 -38 3 -80 8 -93 12 -18 6 -32 -3 -85 -56 -74 -76
-120 -160 -147 -265 -110 -430 300 -835 734 -724 112 28 189 73 277 161 96 94
144 188 166 320 14 80 14 98 -1 183 -18 109 -56 195 -122 279 -44 57 -46 58
-82 50 -109 -23 -197 12 -239 97 -84 165 92 341 257 258 67 -35 102 -86 108
-155 4 -52 10 -63 54 -113 103 -115 169 -261 189 -422 42 -322 -150 -652 -449
-773 -61 -25 -227 -65 -269 -65 l-23 0 0 -316 c0 -253 -3 -329 -16 -387 -46
-207 -219 -386 -424 -443 -157 -42 -376 -24 -510 43 -92 46 -214 162 -255 243
-72 141 -67 92 -77 860 -4 382 -11 772 -14 867 l-6 172 -49 16 c-61 21 -143
74 -187 123 -19 20 -49 70 -69 109 -59 122 -58 275 5 403 89 185 331 288 532
228z"/>
<path d="M2175 3349 c-101 -18 -161 -64 -206 -155 -28 -57 -31 -71 -27 -127 6
-76 33 -131 88 -181 58 -52 103 -69 180 -69 129 0 230 85 260 217 38 172 -125
346 -295 315z"/>
</g>
</svg>
