<svg xmlns="http://www.w3.org/2000/svg" viewBox="0 0 24 24">
  <path d="M22,10.13v-0.01c0-0.48-0.39-0.87-0.87-0.87H19V4.187C19,3.532,18.468,3,17.813,3h0c-0.656,0-1.187,0.532-1.187,1.187V9.25 h-5.093L7.754,3.533C7.534,3.2,7.162,3,6.763,3H6.187C5.532,3,5,3.532,5,4.187V9.25H2.87C2.39,9.25,2,9.64,2,10.12v0.01 C2,10.61,2.39,11,2.87,11H5v2.25H2.87C2.39,13.25,2,13.64,2,14.12v0.01C2,14.61,2.39,15,2.87,15H5v4.813C5,20.468,5.532,21,6.187,21 h0c0.656,0,1.187-0.532,1.187-1.187V15h5.228l3.618,5.468C16.44,20.8,16.812,21,17.211,21h0.602C18.468,21,19,20.468,19,19.813V15 h2.13c0.48,0,0.87-0.39,0.87-0.87v-0.01c0-0.48-0.39-0.87-0.87-0.87H19V11h2.13C21.61,11,22,10.61,22,10.13z M16.625,11v2.25h-2.499 L12.665,11H16.625z M7.375,7.042L8.819,9.25H7.375V7.042z M7.375,11h2.583l1.475,2.25H7.375V11z M15.278,15h1.347v2.059L15.278,15z" fill="#0B1F7E" />
</svg>