<?xml version="1.0" standalone="no"?>
<!DOCTYPE svg PUBLIC "-//W3C//DTD SVG 20010904//EN"
 "http://www.w3.org/TR/2001/REC-SVG-20010904/DTD/svg10.dtd">
<svg version="1.0" xmlns="http://www.w3.org/2000/svg"
 width="642.000000pt" height="642.000000pt" viewBox="0 0 642.000000 642.000000"
 preserveAspectRatio="xMidYMid meet">
<metadata>
Created by potrace 1.11, written by Peter Selinger 2001-2013
</metadata>
<g transform="translate(0.000000,642.000000) scale(0.100000,-0.100000)"
fill="#000000" stroke="none">
<path d="M3110 6407 c-3 -3 -50 -7 -105 -8 -55 -2 -116 -6 -135 -10 -19 -4
-60 -10 -90 -13 -92 -9 -170 -23 -288 -51 -62 -15 -118 -28 -125 -29 -6 -2
-19 -5 -27 -8 -8 -3 -35 -11 -60 -18 -25 -7 -56 -17 -70 -23 -14 -6 -31 -9
-37 -8 -7 1 -13 -3 -13 -9 0 -5 -8 -10 -17 -10 -17 0 -200 -70 -235 -90 -10
-6 -24 -10 -32 -10 -8 0 -16 -3 -18 -7 -3 -8 -96 -54 -101 -50 -1 1 -16 -8
-34 -21 -17 -12 -33 -22 -36 -22 -19 0 -324 -195 -344 -220 -7 -8 -13 -12 -13
-8 0 7 -11 -1 -63 -46 -12 -10 -33 -26 -47 -35 -14 -8 -41 -30 -60 -48 -64
-58 -95 -83 -102 -83 -5 0 -8 -7 -8 -17 0 -9 -3 -14 -6 -10 -6 6 -164 -152
-239 -238 -22 -26 -45 -52 -50 -58 -6 -7 -29 -37 -52 -67 -23 -30 -51 -64 -61
-76 -11 -11 -25 -32 -32 -45 -7 -13 -16 -26 -19 -29 -14 -11 -120 -178 -168
-265 -25 -45 -120 -236 -151 -305 -36 -80 -120 -315 -112 -315 2 0 -2 -11 -9
-24 -7 -13 -15 -33 -17 -45 -1 -11 -14 -66 -28 -120 -14 -55 -28 -118 -32
-140 -3 -22 -7 -44 -10 -47 -2 -4 -6 -31 -9 -61 -3 -30 -8 -66 -11 -79 -3 -13
-7 -51 -10 -84 -3 -33 -9 -91 -12 -130 -4 -38 -7 -140 -6 -225 2 -251 22 -441
70 -659 8 -36 17 -77 20 -91 8 -41 64 -233 77 -265 6 -16 12 -32 13 -35 0 -3
4 -14 8 -25 4 -11 17 -45 29 -75 11 -30 24 -59 29 -65 4 -5 8 -15 8 -22 0 -19
138 -295 195 -388 27 -44 71 -113 99 -154 28 -40 56 -81 61 -89 6 -9 15 -21
20 -27 6 -7 19 -24 30 -39 11 -15 27 -36 35 -46 180 -218 322 -358 516 -512
43 -35 81 -66 82 -70 2 -5 10 -8 18 -8 8 0 17 -7 20 -15 4 -8 10 -12 15 -9 5
3 9 1 9 -3 0 -5 22 -22 50 -38 27 -17 50 -33 50 -37 0 -5 4 -8 9 -8 5 0 46
-22 90 -50 44 -27 85 -50 91 -50 5 0 10 -5 10 -12 0 -6 3 -8 7 -5 3 4 11 3 17
-3 11 -8 195 -103 206 -106 14 -3 48 -17 70 -29 80 -42 466 -163 580 -181 14
-2 36 -7 50 -10 14 -4 35 -8 47 -9 13 -2 42 -6 65 -10 98 -15 197 -27 253 -31
148 -9 493 -3 590 10 22 3 58 8 80 11 247 32 585 120 755 197 25 11 50 22 55
23 6 1 28 10 50 20 22 10 43 18 48 17 4 -1 7 3 7 8 0 6 9 10 20 10 11 0 20 5
20 10 0 6 6 10 13 10 15 0 101 42 105 53 2 4 9 7 14 7 41 0 373 224 549 370
128 106 462 458 465 490 0 3 17 23 37 45 20 22 37 46 37 53 0 7 7 15 15 18 8
4 15 12 15 20 0 8 8 22 18 32 9 10 22 27 29 38 79 128 138 232 168 294 20 41
40 82 45 90 13 25 81 177 86 195 2 6 26 75 53 155 28 80 51 154 51 166 0 11 3
24 7 28 4 3 8 12 9 19 1 7 9 46 18 87 9 41 19 93 22 115 3 21 8 43 11 48 3 5
7 28 9 50 2 23 7 58 10 77 7 40 8 52 19 180 10 120 12 355 4 440 -4 36 -9 94
-13 130 -11 119 -46 333 -65 395 -2 6 -5 15 -6 20 -1 6 -8 33 -15 60 -6 28
-13 55 -14 62 -1 7 -5 16 -9 19 -4 4 -7 17 -7 29 0 12 -3 25 -7 29 -4 3 -8 13
-9 21 -3 18 -23 84 -34 110 -4 11 -16 40 -25 65 -9 25 -22 56 -28 70 -6 14
-11 27 -12 30 -5 18 -95 207 -115 240 -4 8 -16 32 -25 53 -9 20 -21 37 -27 37
-6 0 -9 3 -5 6 6 6 -52 107 -65 112 -4 2 -8 8 -8 12 0 14 -93 150 -102 150 -5
0 -6 5 -3 10 3 6 1 10 -6 10 -7 0 -10 3 -6 6 3 4 1 12 -6 18 -7 7 -25 30 -42
51 -44 56 -134 165 -164 198 -29 32 -205 206 -224 223 -7 6 -35 31 -63 55 -27
24 -67 58 -87 74 -21 17 -44 36 -52 43 -7 6 -16 12 -19 12 -3 0 -14 8 -24 18
-28 26 -70 54 -78 52 -4 -1 -10 3 -13 8 -24 39 -350 222 -561 315 -96 43 -301
114 -355 124 -16 3 -33 10 -37 16 -4 7 -8 9 -8 5 0 -3 -33 3 -72 13 -40 11
-89 22 -108 25 -19 3 -42 7 -50 10 -8 3 -33 8 -55 10 -22 3 -62 9 -90 14 -27
5 -75 12 -105 15 -30 3 -73 7 -94 10 -74 8 -371 17 -376 12z"/>
</g>
</svg>
