<svg xmlns="http://www.w3.org/2000/svg" viewBox="0 0 40 40"><path fill="#fff" d="M4.5 6.5H38.5V38.5H4.5z"/><path fill="#788b9c" d="M38,7v31H5V7H38 M39,6H4v33h35V6L39,6z"/><path fill="#f78f8f" d="M4.5 6.5H38.5V12.5H4.5z"/><path fill="#c74343" d="M38,7v5H5V7H38 M39,6H4v7h35V6L39,6z"/><path fill="#c5d4de" d="M30 17H33V20H30zM25 17H28V20H25zM20 17H23V20H20zM15 17H18V20H15zM30 22H33V25H30zM25 22H28V25H25zM20 22H23V25H20zM15 22H18V25H15zM10 22H13V25H10zM25 27H28V30H25zM20 27H23V30H20zM15 27H18V30H15zM10 27H13V30H10z"/><path fill="#e1ebf2" d="M5 35H38V38H5z"/><path fill="#8bb7f0" d="M11.5,21.5c-5.514,0-10-4.486-10-10s4.486-10,10-10s10,4.486,10,10S17.014,21.5,11.5,21.5z"/><path fill="#4e7ab5" d="M11.5,2c5.238,0,9.5,4.262,9.5,9.5S16.738,21,11.5,21S2,16.738,2,11.5S6.262,2,11.5,2 M11.5,1 C5.701,1,1,5.701,1,11.5S5.701,22,11.5,22S22,17.299,22,11.5S17.299,1,11.5,1L11.5,1z"/><path fill="#fff" d="M11.5 4A7.5 7.5 0 1 0 11.5 19A7.5 7.5 0 1 0 11.5 4Z"/><path fill="#36404d" d="M11.5 10.25A1.25 1.25 0 1 0 11.5 12.75A1.25 1.25 0 1 0 11.5 10.25Z"/><path fill="none" stroke="#36404d" d="M14.5 15.25L11.5 11.5 13.75 5.5"/></svg>